<?xml version="1.0" encoding="UTF-8"?>
<svg width="576px" height="326px" viewBox="0 0 576 326" version="1.1" xmlns="http://www.w3.org/2000/svg" xmlns:xlink="http://www.w3.org/1999/xlink">
    <title>android</title>
    <g id="Page-1" stroke="none" stroke-width="1" fill="none" fill-rule="evenodd">
        <g id="android" fill="#000000" fill-rule="nonzero">
            <path d="M420.55,243.05399 C407.295166,243.05399 396.55,232.308824 396.55,219.05399 C396.55,205.799156 407.295166,195.05399 420.55,195.05399 C433.804834,195.05399 444.55,205.799156 444.55,219.05399 C444.55,232.308824 433.804834,243.05399 420.55,243.05399 M155.45,243.05399 C142.195166,243.05399 131.45,232.308824 131.45,219.05399 C131.45,205.799156 142.195166,195.05399 155.45,195.05399 C168.704834,195.05399 179.45,205.799156 179.45,219.05399 C179.45,232.308824 168.704834,243.05399 155.45,243.05399 M429.15,98.5739903 L477.09,15.5739903 C479.168693,12.4761194 479.350127,8.47872384 477.560615,5.20528277 C475.771104,1.9318417 472.308228,-0.0732975274 468.578381,0.00205153694 C464.848534,0.0817391054 461.47196,2.22902429 459.82,5.57399029 L459.82,5.57399029 L411.28,89.6439903 C332.856561,54.4708684 243.143439,54.4708684 164.72,89.6439903 L116.18,5.57399029 C114.52804,2.22902429 111.151466,0.0817391054 107.421619,0.00205153694 C103.691772,-0.0732975274 100.228896,1.9318417 98.4393847,5.20528277 C96.6498732,8.47872384 96.8313071,12.4761194 98.91,15.5739903 L98.91,15.5739903 L146.85,98.5739903 C64.53,143.34399 8.24,226.67399 0,325.12399 L576,325.12399 C567.76,226.67399 511.46,143.34399 429.15,98.5739903" id="Shape"></path>
        </g>
    </g>
</svg>