<?xml version="1.0" encoding="UTF-8"?>
<svg width="454px" height="337px" viewBox="0 0 454 337" version="1.1" xmlns="http://www.w3.org/2000/svg" xmlns:xlink="http://www.w3.org/1999/xlink">
    <!-- Generator: Sketch 55.2 (78181) - https://sketchapp.com -->
    <title>J 2</title>
    <desc>Created with Sketch.</desc>
    <g id="V2" stroke="none" stroke-width="1" fill="none" fill-rule="evenodd">
        <g id="Resources" transform="translate(-119.000000, -244.000000)" fill="#000" fill-rule="nonzero">
            <g id="Logo" transform="translate(71.000000, 138.000000)">
                <path d="M162.583654,442 C141.718806,442 122.794155,437.861924 105.809135,429.585647 C88.8241138,421.30937 75.2018141,408.80893 64.9418269,392.083954 C54.6818397,375.358978 49.0346206,354.409966 48,329.23629 L48,327.684496 L98.4028846,327.684496 C99.0926317,353.030594 103.912285,361.651938 114.862019,373.549086 C125.811753,385.446234 141.460155,391.394719 161.807692,391.394719 C176.119943,391.394719 187.845467,388.334267 196.984615,382.21327 C206.123764,376.092274 212.891805,367.643701 217.288942,356.867299 C221.68608,346.090896 223.884615,333.719772 223.884615,319.753555 L223.884615,156 L74,156.088016 L74.5173077,106 L502,106 L502,156.088016 L274.839423,156.088016 L274.839423,329.753555 C274.839423,352.168471 270.571677,371.824334 262.036058,388.721733 C253.500438,405.619132 240.912743,418.723041 224.272596,428.033852 C207.632449,437.344664 187.069674,442 162.583654,442 Z M322,250 L476,250 L476,299 L322,299 L322,250 Z M316,394 L501.867228,394 L501.867228,443 L278,443 C288.144143,436.162015 296.166247,428.603196 302.06631,420.323541 C307.966373,412.043886 312.610937,403.269372 316,394 Z" id="J-2"></path>
            </g>
        </g>
    </g>
</svg>