<?xml version="1.0" encoding="UTF-8"?>
<svg width="116px" height="99px" viewBox="0 0 116 99" version="1.1" xmlns="http://www.w3.org/2000/svg" xmlns:xlink="http://www.w3.org/1999/xlink">
    <!-- Generator: Sketch 55.2 (78181) - https://sketchapp.com -->
    <title>Resources</title>
    <desc>Created with Sketch.</desc>
    <g id="Page-1" stroke="none" stroke-width="1" fill="none" fill-rule="evenodd">
        <g id="Resources" transform="translate(-1037.000000, -2966.000000)" fill="#FFFFFF" fill-rule="nonzero">
            <path d="M1090.841,3038.642 C1089.28833,3052.06807 1080.29208,3058.781 1063.852,3058.781 C1055.26662,3058.781 1043.59138,3055.73556 1036.83268,3051.89954 L1036.83268,3027.92454 L1050.80668,3026.96554 L1050.80668,3037.78854 C1050.80668,3039.15855 1050.98935,3040.16321 1051.35468,3040.80254 C1051.72002,3041.44188 1054.23012,3043.16983 1057.29826,3043.79801 C1060.36639,3044.42619 1062.18515,3044.67 1065.4275,3044.67 C1068.66985,3044.67 1071.02166,3043.68818 1072.483,3041.7245 C1073.94434,3039.76082 1074.675,3036.58702 1074.675,3032.203 C1074.675,2998.501 1074.675,2981.5451 1074.675,2981.33531 C1074.675,2978.17828 1072.24458,2977.54 1071.5241,2977.54 C1071.5241,2977.54 1063.59405,2977.54 1047.73395,2977.54 L1047.73395,2965.895 L1152.589,2965.895 L1152.589,2976.992 L1095.362,2977.403 C1092.71332,2977.677 1091.389,2979.09265 1091.389,2981.65 L1091.389,3024.257 C1091.389,3030.7417 1091.20634,3035.53665 1090.841,3038.642 Z" id="J"></path>
            <path d="M1153,3065 L1098.114,3065 L1098.114,3055.199 L1102.107,3054.836 C1104.44635,3054.594 1105.616,3053.46468 1105.616,3051.448 L1105.616,2995.183 L1098.719,2994.82 L1098.719,2984.535 L1148.329,2984.535 L1148.329,3004.621 L1137.94476,3005.468 L1137.94476,3000.628 C1137.94476,2999.25666 1137.74309,2998.28867 1137.33976,2997.724 C1136.93642,2997.15933 1135.96843,2996.877 1134.43576,2996.877 L1120.378,2996.877 L1120.378,3017.568 L1148.329,3017.568 L1148.329,3029.91 L1120.378,3029.91 L1120.378,3052.537 L1139.859,3052.537 C1141.31101,3052.537 1142.23866,3052.2345 1142.642,3051.6295 C1143.04534,3051.0245 1143.247,3050.03634 1143.247,3048.665 L1143.247,3042.615 L1153,3043.462 L1153,3065 Z" id="E"></path>
        </g>
    </g>
</svg>